{
    "asset" : {
        "generator" : "Khronos glTF Blender I/O v1.5.17",
        "version" : "2.0"
    },
    "scene" : 0,
    "scenes" : [
        {
            "name" : "Scene",
            "nodes" : [
                0
            ]
        }
    ],
    "nodes" : [
        {
            "mesh" : 0,
            "name" : "Plane",
            "scale" : [
                113.20187377929688,
                113.20187377929688,
                113.20187377929688
            ]
        }
    ],
    "meshes" : [
        {
            "name" : "Plane",
            "primitives" : [
                {
                    "attributes" : {
                        "POSITION" : 0,
                        "NORMAL" : 1,
                        "TEXCOORD_0" : 2
                    },
                    "indices" : 3
                }
            ]
        }
    ],
    "accessors" : [
        {
            "bufferView" : 0,
            "componentType" : 5126,
            "count" : 6081,
            "max" : [
                1,
                0.07027222216129303,
                1
            ],
            "min" : [
                -1,
                -0.0019456768641248345,
                -1
            ],
            "type" : "VEC3"
        },
        {
            "bufferView" : 1,
            "componentType" : 5126,
            "count" : 6081,
            "type" : "VEC3"
        },
        {
            "bufferView" : 2,
            "componentType" : 5126,
            "count" : 6081,
            "type" : "VEC2"
        },
        {
            "bufferView" : 3,
            "componentType" : 5123,
            "count" : 12756,
            "type" : "SCALAR"
        }
    ],
    "bufferViews" : [
        {
            "buffer" : 0,
            "byteLength" : 72972,
            "byteOffset" : 0
        },
        {
            "buffer" : 0,
            "byteLength" : 72972,
            "byteOffset" : 72972
        },
        {
            "buffer" : 0,
            "byteLength" : 48648,
            "byteOffset" : 145944
        },
        {
            "buffer" : 0,
            "byteLength" : 25512,
            "byteOffset" : 194592
        }
    ],
    "buffers" : [
        {
            "byteLength" : 220104,
            "uri" : "data:application/octet-stream;base64,"
        }
    ]
}
