{
    "asset" : {
        "generator" : "Khronos glTF Blender I/O v1.5.17",
        "version" : "2.0"
    },
    "scene" : 0,
    "scenes" : [
        {
            "name" : "Scene",
            "nodes" : [
                0
            ]
        }
    ],
    "nodes" : [
        {
            "mesh" : 0,
            "name" : "Plane",
            "scale" : [
                42.3520622253418,
                21.1760311126709,
                42.3520622253418
            ]
        }
    ],
    "meshes" : [
        {
            "name" : "Plane",
            "primitives" : [
                {
                    "attributes" : {
                        "POSITION" : 0,
                        "NORMAL" : 1,
                        "TEXCOORD_0" : 2
                    },
                    "indices" : 3
                }
            ]
        }
    ],
    "accessors" : [
        {
            "bufferView" : 0,
            "componentType" : 5126,
            "count" : 7004,
            "max" : [
                3.2388947010040283,
                10.0341157913208,
                3.1844279766082764
            ],
            "min" : [
                -2.970248222351074,
                -2.340428113937378,
                -3.204002857208252
            ],
            "type" : "VEC3"
        },
        {
            "bufferView" : 1,
            "componentType" : 5126,
            "count" : 7004,
            "type" : "VEC3"
        },
        {
            "bufferView" : 2,
            "componentType" : 5126,
            "count" : 7004,
            "type" : "VEC2"
        },
        {
            "bufferView" : 3,
            "componentType" : 5123,
            "count" : 10506,
            "type" : "SCALAR"
        }
    ],
    "bufferViews" : [
        {
            "buffer" : 0,
            "byteLength" : 84048,
            "byteOffset" : 0
        },
        {
            "buffer" : 0,
            "byteLength" : 84048,
            "byteOffset" : 84048
        },
        {
            "buffer" : 0,
            "byteLength" : 56032,
            "byteOffset" : 168096
        },
        {
            "buffer" : 0,
            "byteLength" : 21012,
            "byteOffset" : 224128
        }
    ],
    "buffers" : [
        {
            "byteLength" : 245140,
            "uri" : "data:application/octet-stream;base64,"
        }
    ]
}
