{
    "asset" : {
        "generator" : "Khronos glTF Blender I/O v1.5.17",
        "version" : "2.0"
    },
    "scene" : 0,
    "scenes" : [
        {
            "name" : "Scene",
            "nodes" : [
                0
            ]
        }
    ],
    "nodes" : [
        {
            "mesh" : 0,
            "name" : "Cylinder.002",
            "scale" : [
                1,
                1.696505069732666,
                1
            ],
            "translation" : [
                -1.7613753080368042,
                0.6784571409225464,
                -6.7358293533325195
            ]
        }
    ],
    "meshes" : [
        {
            "name" : "Cylinder.002",
            "primitives" : [
                {
                    "attributes" : {
                        "POSITION" : 0,
                        "NORMAL" : 1,
                        "TEXCOORD_0" : 2
                    },
                    "indices" : 3
                }
            ]
        }
    ],
    "accessors" : [
        {
            "bufferView" : 0,
            "componentType" : 5126,
            "count" : 816,
            "max" : [
                2.9646618366241455,
                6.597437381744385,
                10.722146034240723
            ],
            "min" : [
                0.5641666650772095,
                -1.7144665718078613,
                3.6881542205810547
            ],
            "type" : "VEC3"
        },
        {
            "bufferView" : 1,
            "componentType" : 5126,
            "count" : 816,
            "type" : "VEC3"
        },
        {
            "bufferView" : 2,
            "componentType" : 5126,
            "count" : 816,
            "type" : "VEC2"
        },
        {
            "bufferView" : 3,
            "componentType" : 5123,
            "count" : 1260,
            "type" : "SCALAR"
        }
    ],
    "bufferViews" : [
        {
            "buffer" : 0,
            "byteLength" : 9792,
            "byteOffset" : 0
        },
        {
            "buffer" : 0,
            "byteLength" : 9792,
            "byteOffset" : 9792
        },
        {
            "buffer" : 0,
            "byteLength" : 6528,
            "byteOffset" : 19584
        },
        {
            "buffer" : 0,
            "byteLength" : 2520,
            "byteOffset" : 26112
        }
    ],
    "buffers" : [
        {
            "byteLength" : 28632,
            "uri" : "data:application/octet-stream;base64,"
        }
    ]
}
