{
    "asset" : {
        "generator" : "Khronos glTF Blender I/O v1.5.17",
        "version" : "2.0"
    },
    "scene" : 0,
    "scenes" : [
        {
            "name" : "Scene",
            "nodes" : [
                0,
                1,
                2
            ]
        }
    ],
    "nodes" : [
        {
            "mesh" : 0,
            "name" : "Cylinder",
            "scale" : [
                1.9479721784591675,
                1.4186338186264038,
                2.1765220165252686
            ]
        },
        {
            "mesh" : 1,
            "name" : "Cylinder.002",
            "scale" : [
                1.9479721784591675,
                1.4186338186264038,
                2.1765220165252686
            ]
        },
        {
            "mesh" : 2,
            "name" : "Cylinder.003",
            "scale" : [
                1.9479721784591675,
                1.4186338186264038,
                2.1765220165252686
            ]
        }
    ],
    "meshes" : [
        {
            "name" : "Cylinder",
            "primitives" : [
                {
                    "attributes" : {
                        "POSITION" : 0,
                        "NORMAL" : 1,
                        "TEXCOORD_0" : 2
                    },
                    "indices" : 3
                }
            ]
        },
        {
            "name" : "Cylinder.002",
            "primitives" : [
                {
                    "attributes" : {
                        "POSITION" : 4,
                        "NORMAL" : 5,
                        "TEXCOORD_0" : 6
                    },
                    "indices" : 7
                }
            ]
        },
        {
            "name" : "Cylinder.003",
            "primitives" : [
                {
                    "attributes" : {
                        "POSITION" : 8,
                        "NORMAL" : 9,
                        "TEXCOORD_0" : 10
                    },
                    "indices" : 11
                }
            ]
        }
    ],
    "accessors" : [
        {
            "bufferView" : 0,
            "componentType" : 5126,
            "count" : 522,
            "max" : [
                3.875448226928711,
                12.656286239624023,
                1.2662323713302612
            ],
            "min" : [
                -1.0020955801010132,
                0.12306594848632812,
                -1
            ],
            "type" : "VEC3"
        },
        {
            "bufferView" : 1,
            "componentType" : 5126,
            "count" : 522,
            "type" : "VEC3"
        },
        {
            "bufferView" : 2,
            "componentType" : 5126,
            "count" : 522,
            "type" : "VEC2"
        },
        {
            "bufferView" : 3,
            "componentType" : 5123,
            "count" : 858,
            "type" : "SCALAR"
        },
        {
            "bufferView" : 4,
            "componentType" : 5126,
            "count" : 222,
            "max" : [
                0.3743247985839844,
                12.912237167358398,
                1.3570537567138672
            ],
            "min" : [
                -3.0417909622192383,
                5.97517204284668,
                -0.3395432233810425
            ],
            "type" : "VEC3"
        },
        {
            "bufferView" : 5,
            "componentType" : 5126,
            "count" : 222,
            "type" : "VEC3"
        },
        {
            "bufferView" : 6,
            "componentType" : 5126,
            "count" : 222,
            "type" : "VEC2"
        },
        {
            "bufferView" : 7,
            "componentType" : 5123,
            "count" : 348,
            "type" : "SCALAR"
        },
        {
            "bufferView" : 8,
            "componentType" : 5126,
            "count" : 222,
            "max" : [
                1.3343390226364136,
                15.541937828063965,
                2.272359848022461
            ],
            "min" : [
                -0.7185607552528381,
                10.277177810668945,
                0.07231676578521729
            ],
            "type" : "VEC3"
        },
        {
            "bufferView" : 9,
            "componentType" : 5126,
            "count" : 222,
            "type" : "VEC3"
        },
        {
            "bufferView" : 10,
            "componentType" : 5126,
            "count" : 222,
            "type" : "VEC2"
        },
        {
            "bufferView" : 11,
            "componentType" : 5123,
            "count" : 348,
            "type" : "SCALAR"
        }
    ],
    "bufferViews" : [
        {
            "buffer" : 0,
            "byteLength" : 6264,
            "byteOffset" : 0
        },
        {
            "buffer" : 0,
            "byteLength" : 6264,
            "byteOffset" : 6264
        },
        {
            "buffer" : 0,
            "byteLength" : 4176,
            "byteOffset" : 12528
        },
        {
            "buffer" : 0,
            "byteLength" : 1716,
            "byteOffset" : 16704
        },
        {
            "buffer" : 0,
            "byteLength" : 2664,
            "byteOffset" : 18420
        },
        {
            "buffer" : 0,
            "byteLength" : 2664,
            "byteOffset" : 21084
        },
        {
            "buffer" : 0,
            "byteLength" : 1776,
            "byteOffset" : 23748
        },
        {
            "buffer" : 0,
            "byteLength" : 696,
            "byteOffset" : 25524
        },
        {
            "buffer" : 0,
            "byteLength" : 2664,
            "byteOffset" : 26220
        },
        {
            "buffer" : 0,
            "byteLength" : 2664,
            "byteOffset" : 28884
        },
        {
            "buffer" : 0,
            "byteLength" : 1776,
            "byteOffset" : 31548
        },
        {
            "buffer" : 0,
            "byteLength" : 696,
            "byteOffset" : 33324
        }
    ],
    "buffers" : [
        {
            "byteLength" : 34020,
            "uri" : "data:application/octet-stream;base64,"
        }
    ]
}
